<?xml version="1.0" encoding="UTF-8" standalone="no"?>
<svg width="40px" height="40px" viewBox="0 0 40 40" version="1.1" xmlns="http://www.w3.org/2000/svg" xmlns:xlink="http://www.w3.org/1999/xlink">
    <!-- Generator: Sketch 42 (36781) - http://www.bohemiancoding.com/sketch -->
    <title>Star</title>
    <desc>Created with Sketch.</desc>
    <defs></defs>
    <g id="Assets" stroke="none" stroke-width="1" fill="none" fill-rule="evenodd">
        <g id="Star" fill-rule="nonzero" fill="#FFFFFF">
            <path d="M39.9651676,14.5051161 C40.0044834,14.6256711 40.0653627,14.9344805 39.7931611,15.1986585 L31.6628181,23.1244993 C30.8649685,23.903393 30.5005954,25.0236922 30.6888498,26.1222273 L32.6083024,37.3125817 C32.6732938,37.6864828 32.4417118,37.9005131 32.3387085,37.9750326 C32.2371093,38.049552 31.9620994,38.2040069 31.6262103,38.0264841 L21.5764146,32.7435263 C21.0819585,32.4834605 20.5414668,32.3533774 19.9996713,32.3533774 C19.4591796,32.3533774 18.9173841,32.4834605 18.4242318,32.7435263 L8.37433587,38.0265844 C8.03834642,38.2040069 7.76343684,38.0496523 7.6604335,37.9751329 C7.55883431,37.9006134 7.32715202,37.6865831 7.39083958,37.312682 L9.31029217,26.1223276 C9.49854656,25.0237925 9.13557765,23.9034933 8.33632393,23.1245996 L0.205980907,15.1987588 C-0.0663209939,14.9345808 -0.00393728027,14.6257714 0.0352782053,14.5052164 C0.0745939862,14.3846614 0.205980907,14.0988196 0.581185847,14.0446601 L11.8176762,12.4110493 C12.9203233,12.2511785 13.8739316,11.5590402 14.3670839,10.559296 L19.3927841,0.376609075 C19.5607788,0.0366078062 19.8737003,0 19.9996713,0 C20.0633588,0 20.173082,0.00952805916 20.288221,0.0609795786 C20.4033601,0.112431098 20.5239151,0.207310508 20.6078624,0.376609075 L25.6320581,10.5591957 C26.1251101,11.5589399 27.0788187,12.2510782 28.1827697,12.410949 L39.4178559,14.0445598 C39.7944649,14.0988196 39.9258518,14.3845611 39.9651676,14.5051161 Z" id="Shape"></path>
        </g>
    </g>
</svg>