<?xml version="1.0" encoding="UTF-8" standalone="no"?>
<svg width="16px" height="14px" viewBox="0 0 16 14" version="1.1" xmlns="http://www.w3.org/2000/svg" xmlns:xlink="http://www.w3.org/1999/xlink">
    <!-- Generator: Sketch 42 (36781) - http://www.bohemiancoding.com/sketch -->
    <title>desktop</title>
    <desc>Created with Sketch.</desc>
    <defs></defs>
    <g id="Icons" stroke="none" stroke-width="1" fill="none" fill-rule="evenodd">
        <g id="desktop" fill-rule="nonzero" fill="#004562">
            <path d="M14.5341184,0.02867831 L0.933783973,0.02867831 C0.418902215,0.02867831 0,0.453068327 0,0.974695261 L0,10.4877834 C0,11.0094104 0.418902215,11.4338004 0.933783973,11.4338004 L5.59409378,11.4338004 L5.59409378,12.1221411 C5.59409378,12.7531557 5.08733871,13.2665495 4.46448374,13.2665495 L3.43740898,13.2665495 C3.24049534,13.2665495 3.08083154,13.4282743 3.08083154,13.6277982 C3.08083154,13.8273221 3.24049534,13.989047 3.43740898,13.989047 L12.030433,13.989047 C12.2273466,13.989047 12.3870104,13.8273221 12.3870104,13.6277982 C12.3870104,13.4282743 12.2273466,13.2665495 12.030433,13.2665495 L11.003328,13.2665495 C10.380473,13.2665495 9.87371796,12.7531557 9.87371796,12.1221411 L9.87371796,11.433831 L14.5340278,11.433831 C15.0489095,11.433831 15.4678419,11.009441 15.4678419,10.4878141 L15.4678419,0.974695261 C15.4679024,0.453068327 15.0490002,0.02867831 14.5341184,0.02867831 Z M5.91888952,13.2666107 C6.16196518,12.9502617 6.30730909,12.5532339 6.30730909,12.1222023 L6.30730909,11.4338616 L9.16062349,11.4338616 L9.16062349,12.1222023 C9.16062349,12.5532339 9.3059674,12.9502923 9.54904306,13.2666107 L5.91888952,13.2666107 Z M14.7547475,10.4878141 C14.7547475,10.6110665 14.6557771,10.7113641 14.5340882,10.7113641 L0.933783973,10.7113641 C0.812125296,10.7113641 0.713124679,10.6110971 0.713124679,10.4878141 L0.713124679,8.58919975 L14.7547475,8.58919975 L14.7547475,10.4878141 Z M14.7547475,7.86667161 L0.713154889,7.86667161 L0.713154889,0.974695261 C0.713154889,0.851442802 0.812125296,0.751145233 0.933814184,0.751145233 L14.5340882,0.751145233 C14.6557469,0.751145233 14.7547777,0.851412195 14.7547777,0.974695261 L14.7547777,7.86667161 L14.7547475,7.86667161 Z" id="Shape"></path>
            <ellipse id="Oval" cx="7.73404182" cy="9.65038904" rx="0.384824493" ry="0.389865862"></ellipse>
            <path d="M8.34535628,2.51750876 C8.20608474,2.37644331 7.98038025,2.37644331 7.84104828,2.51750876 L5.32104905,5.07052109 C5.18180772,5.21158654 5.18180772,5.44033968 5.32104905,5.58143574 C5.39071503,5.65198377 5.48192127,5.68724248 5.57321815,5.68724248 C5.66451503,5.68724248 5.75572127,5.65198377 5.82535704,5.58143574 L8.34535628,3.02842341 C8.48459761,2.88735796 8.48459761,2.65860482 8.34535628,2.51750876 Z" id="Shape"></path>
            <path d="M9.8389756,3.99699737 C9.69976448,3.85593192 9.47405999,3.85593192 9.33469782,3.99696676 L8.3307947,5.01396024 C8.19155337,5.1550563 8.19155337,5.38380943 8.3307947,5.52487489 C8.40043047,5.59542292 8.49166693,5.63068163 8.58293359,5.63068163 C8.67417005,5.63068163 8.76543671,5.59542292 8.83507248,5.52487489 L9.8389756,4.50788141 C9.97821693,4.36681596 9.97821693,4.13806282 9.8389756,3.99699737 Z" id="Shape"></path>
        </g>
    </g>
</svg>