<?xml version="1.0" encoding="UTF-8" standalone="no"?>
<svg width="107px" height="57px" viewBox="0 0 107 57" version="1.1" xmlns="http://www.w3.org/2000/svg" xmlns:xlink="http://www.w3.org/1999/xlink">
    <!-- Generator: Sketch 42 (36781) - http://www.bohemiancoding.com/sketch -->
    <title>Shape</title>
    <desc>Created with Sketch.</desc>
    <defs></defs>
    <g id="Page-1" stroke="none" stroke-width="1" fill="none" fill-rule="evenodd">
        <path d="M2,9.68 C1.04,8.72 0.56,7.4933 0.56,6 C0.56,4.5067 1.04,3.28 2,2.32 C2.96,1.36 4.1867,0.88 5.68,0.88 C7.2267,0.88 8.48,1.36 9.44,2.32 C10.4,3.28 10.88,4.5067 10.88,6 C10.88,7.4933 10.4,8.72 9.44,9.68 C8.48,10.64 7.2267,11.12 5.68,11.12 C4.1867,11.12 2.96,10.64 2,9.68 L2,9.68 Z M1.44,17.12 L10,17.12 L10,56 L1.44,56 L1.44,17.12 L1.44,17.12 Z M29.72,53.4 C26.067,51.08 23.24,47.853 21.24,43.72 C19.24,39.587 18.24,34.853 18.24,29.52 C18.24,24.027 19.28,19.133 21.36,14.84 C23.44,10.547 26.347,7.2 30.08,4.8 C33.813,2.4 38.133,1.2 43.04,1.2 C47.84,1.2 52.067,2.3467 55.72,4.64 C59.373,6.9333 62.2,10.16 64.2,14.32 C66.2,18.48 67.2,23.227 67.2,28.56 C67.2,34.16 66.187,39.093 64.16,43.36 C62.133,47.627 59.253,50.947 55.52,53.32 C51.787,55.693 47.413,56.88 42.4,56.88 C37.6,56.88 33.373,55.72 29.72,53.4 L29.72,53.4 Z M50.8,47.2 C53.147,45.387 54.947,42.893 56.2,39.72 C57.453,36.547 58.08,32.933 58.08,28.88 C58.08,24.933 57.44,21.387 56.16,18.24 C54.88,15.093 53.08,12.627 50.76,10.84 C48.44,9.0533 45.76,8.16 42.72,8.16 C39.627,8.16 36.92,9.0667 34.6,10.88 C32.28,12.693 30.493,15.2 29.24,18.4 C27.987,21.6 27.36,25.227 27.36,29.28 C27.36,33.173 27.987,36.693 29.24,39.84 C30.493,42.987 32.293,45.453 34.64,47.24 C36.987,49.027 39.68,49.92 42.72,49.92 C45.76,49.92 48.453,49.013 50.8,47.2 Z M73.28,53.52 L75.28,46.32 C79.013,48.613 83.147,49.76 87.68,49.76 C90.88,49.76 93.413,49.013 95.28,47.52 C97.147,46.027 98.08,44.053 98.08,41.6 C98.08,39.413 97.32,37.573 95.8,36.08 C94.28,34.587 91.787,33.173 88.32,31.84 C83.573,30.027 80.027,27.84 77.68,25.28 C75.333,22.72 74.16,19.733 74.16,16.32 C74.16,13.387 74.92,10.787 76.44,8.52 C77.96,6.2533 80.107,4.48 82.88,3.2 C85.653,1.92 88.827,1.28 92.4,1.28 C97.413,1.28 101.47,2.1333 104.56,3.84 L102.4,10.8 C99.413,9.1467 96,8.32 92.16,8.32 C89.387,8.32 87.133,8.9733 85.4,10.28 C83.667,11.587 82.8,13.307 82.8,15.44 C82.8,16.827 83.107,18.027 83.72,19.04 C84.333,20.053 85.373,21.013 86.84,21.92 C88.307,22.827 90.4,23.84 93.12,24.96 C97.76,26.827 101.19,29.053 103.4,31.64 C105.61,34.227 106.72,37.333 106.72,40.96 C106.72,44.107 105.92,46.88 104.32,49.28 C102.72,51.68 100.45,53.533 97.52,54.84 C94.587,56.147 91.12,56.8 87.12,56.8 C81.467,56.8 76.853,55.707 73.28,53.52 L73.28,53.52 Z" id="Shape" fill="#000000" fill-rule="nonzero"></path>
    </g>
</svg>