<?xml version="1.0" encoding="UTF-8" standalone="no"?>
<svg width="9px" height="14px" viewBox="0 0 9 14" version="1.1" xmlns="http://www.w3.org/2000/svg" xmlns:xlink="http://www.w3.org/1999/xlink">
    <!-- Generator: Sketch 42 (36781) - http://www.bohemiancoding.com/sketch -->
    <title>phone</title>
    <desc>Created with Sketch.</desc>
    <defs></defs>
    <g id="Icons" stroke="none" stroke-width="1" fill="none" fill-rule="evenodd">
        <g id="phone" fill-rule="nonzero" fill="#004562">
            <path d="M7.44233701,0 L1.09711645,0 C0.568483616,0 0.135817974,0.420251807 0.135817974,0.93459574 L0.135817974,12.9020863 C0.135817974,13.4164302 0.568483616,13.8370774 1.09711645,13.8370774 L7.44233701,13.8370774 C7.97096985,13.8370774 8.40363549,13.4172209 8.40363549,12.9024816 L8.40363549,0.93459574 C8.40363549,0.420251807 7.97096985,0 7.44233701,0 Z M3.25475169,0.673667996 L5.28470177,0.673667996 C5.34895099,0.673667996 5.401001,0.724272164 5.401001,0.78713203 C5.401001,0.849596551 5.34895099,0.900200719 5.28470177,0.900200719 L3.25475169,0.900200719 C3.19050247,0.900200719 3.13845247,0.849596551 3.13845247,0.78713203 C3.13845247,0.724272164 3.19050247,0.673667996 3.25475169,0.673667996 Z M4.26972673,13.3697795 C4.00419039,13.3697795 3.78907749,13.160642 3.78907749,12.9020863 C3.78907749,12.6435306 4.00419039,12.4347884 4.26972673,12.4347884 C4.53526307,12.4347884 4.75037597,12.6435306 4.75037597,12.9020863 C4.75037597,13.160642 4.53526307,13.3697795 4.26972673,13.3697795 Z M7.73471164,12.1074427 L0.804741829,12.1074427 L0.804741829,1.48214866 L7.73471164,1.48214866 L7.73471164,12.1074427 Z" id="Shape"></path>
        </g>
    </g>
</svg>