<?xml version="1.0" encoding="UTF-8" standalone="no"?>
<svg width="16px" height="13px" viewBox="0 0 16 13" version="1.1" xmlns="http://www.w3.org/2000/svg" xmlns:xlink="http://www.w3.org/1999/xlink">
    <!-- Generator: Sketch 42 (36781) - http://www.bohemiancoding.com/sketch -->
    <title>tablet</title>
    <desc>Created with Sketch.</desc>
    <defs></defs>
    <g id="Icons" stroke="none" stroke-width="1" fill="none" fill-rule="evenodd">
        <g id="tablet" transform="translate(7.997500, 6.500000) scale(-1, 1) rotate(90.000000) translate(-7.997500, -6.500000) translate(1.497500, -1.497500)" fill-rule="nonzero" fill="#004562">
            <path d="M12.4496273,0.533882862 C12.0969727,0.17789464 11.6736848,0 11.1786606,0 L1.82090606,0 C1.326,0 0.902357576,0.17789464 0.5499,0.533882862 C0.197521212,0.889950662 0.0213121212,1.31771744 0.0213121212,1.81762088 L0.0213121212,14.1772598 C0.0213121212,14.6772428 0.197521212,15.1046913 0.5499,15.4608785 C0.902357576,15.8169463 1.326,15.9946419 1.82090606,15.9946419 L11.1786212,15.9946419 C11.6736455,15.9946419 12.0969727,15.8169463 12.4496273,15.4608785 C12.8020455,15.1046913 12.9783727,14.6770041 12.9783727,14.1772598 L12.9783727,1.81766066 C12.9783727,1.31771744 12.8016515,0.889831296 12.4496273,0.533882862 Z M7.00593636,15.0519714 C6.86360606,15.1957673 6.69480303,15.2676652 6.49976364,15.2676652 C6.30468485,15.2676652 6.13603939,15.1957673 5.99355152,15.0519714 C5.85106364,14.9079369 5.77987879,14.7374827 5.77987879,14.5408079 C5.77987879,14.3439341 5.85106364,14.1732014 5.99355152,14.0296443 C6.13619697,13.8856097 6.30484242,13.8134332 6.49976364,13.8134332 C6.69476364,13.8134332 6.86356667,13.8855699 7.00593636,14.0296443 C7.14830606,14.1731616 7.21976667,14.3438943 7.21976667,14.5408079 C7.21976667,14.7374827 7.14830606,14.9078175 7.00593636,15.0519714 Z M11.5385636,12.7230676 C11.5385636,12.8216637 11.5027152,12.9066122 11.4318061,12.9787887 C11.3603848,13.0509651 11.2762394,13.0866554 11.1786212,13.0866554 L1.82090606,13.0866554 C1.72344545,13.0866554 1.63910303,13.0506866 1.56787879,12.9787887 C1.49665455,12.9068907 1.46104242,12.8216637 1.46104242,12.7230676 L1.46104242,1.81766066 C1.46104242,1.71918398 1.49661515,1.6339569 1.56787879,1.56205897 C1.63914242,1.49008147 1.72344545,1.4541524 1.82090606,1.4541524 L11.1786212,1.4541524 C11.2762394,1.4541524 11.3603455,1.48996211 11.4318061,1.56205897 C11.5029909,1.6339569 11.5385636,1.71918398 11.5385636,1.81766066 L11.5385636,12.7230676 Z" id="Shape"></path>
        </g>
    </g>
</svg>